<svg xmlns="http://www.w3.org/2000/svg" version="1.1" xmlns:xlink="http://www.w3.org/1999/xlink" xmlns:svgjs="http://svgjs.dev/svgjs" width="1000" height="1000" viewBox="0 0 1000 1000"><rect width="1000" height="1000"></rect><g transform="matrix(0.7,0,0,0.7,150,106.25)"><svg viewBox="0 0 320 360" preserveAspectRatio="xMidYMid meet" height="1125" width="1000" xmlns="http://www.w3.org/2000/svg" xmlns:xlink="http://www.w3.org/1999/xlink"><g id="tight-bounds" transform="matrix(1,0,0,1,0,0)"><svg viewBox="0 0 320 360" height="360" width="320"><g><svg></svg></g><g><svg viewBox="0 0 320 360" height="360" width="320"><g><path xmlns="http://www.w3.org/2000/svg" d="M219.58 41.008c0.707 0 6.365 2.829 9.547 3.89-1.061 0.354-3.536-0.707-6.365-1.768 0.707 0 2.122 0.354 3.536 1.06-0.707-0.707-6.011-2.475-6.718-3.182M166.895 30.047c1.061-0.354 13.436 1.414 19.094 1.768 0.354-0.354-0.707-0.354-2.122-0.707 1.768-0.354 5.304 0.707 7.779 1.06-7.425 0.354-15.558-1.768-22.629-1.06-2.475 0-0.707-0.707-2.122-1.061M156.641 30.047c6.365 0 11.315 0 2.121 0.707-1.061-0.354-2.475-0.354-2.121-0.707M256.707 59.395c0.707 0 3.536 3.182 4.95 4.243-0.354 0.354-3.182-2.475-4.596-3.536 0.354 0.354 0 0-0.354-0.707M249.635 54.798c-2.829-2.475-3.889-2.475-4.243-3.889 2.475 1.414 4.243 2.829 4.243 3.889M204.022 32.522c0.354-0.354 1.061 0.354 2.829 0.707-2.122-0.354-1.768 0-1.061 0.707-2.475-0.354-3.182-0.707-2.475-1.414 1.414 0.707 1.768 0.354 0.707 0M103.602 36.765c0-0.354 1.414-1.061 2.475-1.414-1.061 0.707-0.707 1.061 1.061 0.353 0 0.354-2.122 1.061-3.536 1.768 0.707-0.354 1.414-1.414 0-0.707M211.094 28.986c-1.061 0.354-4.95-1.768-8.84-2.475-2.122-0.707 8.486 1.768 8.84 2.475M2.475 203.66c2.122 8.84 0.707 8.486 0 0M2.829 150.621c0.354-1.414 0.707-5.304 1.06-4.95-1.061 8.486-2.829 12.376-3.182 18.74 1.061-5.657-0.354 3.182-0.707 5.304 0.354 2.829 0.354-1.768 1.061-1.06 0.707 1.061-1.414 15.912-0.707 7.779-0.707 7.425 0 15.558 1.414 17.679-1.768 11.315 7.072 36.773 8.84 42.077 0.354 0.354 0-1.768 0.707-0.353 0.707 4.597 3.889 7.779 4.95 12.729 1.061 1.414 5.304 9.193 6.011 10.962 1.414 2.829 2.122 2.475 3.536 5.303 4.243 8.133 10.961 15.912 17.326 23.337 20.508 24.044 51.978 43.845 86.984 50.918 35.006 7.425 71.779 2.122 100.419-11.669 1.768-1.061 1.414-1.414 3.536-2.122 9.901-3.182 21.923-13.436 28.641-17.326 3.182-3.536 11.669-9.547 12.73-13.082 6.011-4.95 12.022-13.083 15.204-18.387 1.768-2.829 3.182-2.829 3.889-4.597-0.354 0 5.657-7.425 7.426-11.668-0.707 0-1.768 2.122-1.768 0 12.729-24.398 19.801-57.282 15.911-79.912 0.707 27.934-6.365 59.05-19.801 78.851-6.011 12.729-18.387 26.519-29.701 36.42-1.768 1.768-3.536 3.889-5.658 5.304-6.718 5.657-14.144 10.254-21.922 14.497-18.387 10.254-38.895 19.094-62.94 19.447 41.37-3.536 78.497-24.398 99.006-49.856-15.558 15.204-22.276 21.215-39.602 30.055-1.414 2.475-13.083 7.425-20.862 9.547 4.597-2.122 14.144-5.657 17.326-8.486-25.812 12.376-54.453 19.448-81.326 15.558 10.254 0 24.751 0.354 38.541-2.121 2.122-0.707 3.182-1.414 5.658-1.768 26.873-6.011 52.685-19.094 71.072-37.481-10.608 9.547-26.519 20.862-36.774 24.398 9.547-5.304 26.873-15.558 32.53-23.337-11.315 11.315-32.53 22.63-45.966 27.58-2.122 0.354 1.414-1.414-2.122 0-4.243 1.061-2.475 1.061-3.536 1.768-16.265 4.597-35.006 8.486-50.563 7.072-2.829-0.354-3.889-1.061-6.365-1.061-2.829-0.354-5.304-0.354-8.486-0.354-12.376-1.414-25.812-6.365-35.713-10.607-5.304-2.475-10.608-4.243-15.912-7.426-4.243-2.475-7.779-5.304-11.314-8.132-13.436-9.901-24.751-19.801-35.36-33.945-19.094-26.519-28.994-59.757-27.58-92.641 1.414-32.884 14.497-65.061 35.359-88.752-1.061 1.061 1.414-2.475 3.536-4.596 0 0.707-0.354 1.768 2.122-0.707 2.122-2.475-0.707-0.707 0.353-2.122 21.923-24.044 60.111-43.492 99.36-44.199 1.414-1.061 3.889-2.475 6.718-1.768 0 0.354-1.768 0.354-1.768 0.354 3.889-0.354 7.425-0.354 9.193 0.353 0.354-0.354-1.414-0.707 0-0.707 2.475 0.707 3.182 0 4.597 0.707-1.061 0-2.122 0-2.829 0.354 8.84 0 14.497 2.122 23.337 2.829-4.597-1.061-5.657-1.061-9.193-2.122 3.889 0.707 5.657 1.414 7.425 1.061-0.707 0-0.354-1.061 0.354-0.707 7.072 1.768 7.779 2.475 15.204 4.95 0.707-0.707-3.182-1.061-4.243-2.122 7.072 2.475 13.436 4.243 17.68 7.072-1.414-1.061-5.657-2.475-8.84-3.889-0.354 0.354 1.061 0.707 1.414 1.414-3.536-1.768-8.486-3.536-13.436-4.243 4.243 1.061 7.072 2.475 8.84 3.182-3.889-0.707-8.84-3.182-14.498-4.243 9.193 2.829 26.519 9.193 37.127 14.851-3.889-2.475-8.486-4.243-10.961-5.657 2.122 0.354 4.597 1.768 4.597 1.06 2.475 1.061 5.657 3.536 7.425 3.89-3.182-2.122-9.547-5.304-11.668-6.365 26.519 12.022 50.21 32.177 65.414 57.989 1.414 2.475 3.536 8.133 5.304 8.84-0.354-1.768-1.768-2.829-3.182-5.657 0.707 0 0.707-1.061 0-2.122-1.414-1.768 0 1.414-1.415-0.354-6.365-11.669-14.144-21.923-26.165-33.237 6.718 6.365 1.768 1.768 0.353-0.354 9.193 8.133 19.801 21.923 24.398 28.995-0.707-1.061-1.061-1.768-0.707-1.768 8.486 14.497 13.79 27.58 19.094 46.32 0.354 0.354 0-1.414 0.707-0.353 3.536 14.851 4.597 27.227 4.243 38.541 2.829-19.094-3.536-48.796-14.851-72.133-1.414-2.829-1.414-0.707-2.829-3.889 0-1.061-1.061-3.182-1.768-4.597-14.144-23.337-31.47-39.956-51.978-53.038 1.414 0.707 4.243 2.829 4.244 2.475-38.188-25.105-82.387-28.641-118.807-20.862-2.475 1.061-3.536 2.122-6.365 3.536 5.304-1.768 8.486-2.122 13.437-3.183 1.061-1.061-4.597 0.354-2.122-0.707 0.354 0.354 4.95-0.707 6.011-0.353 0 0.354-1.414 0.707-1.768 1.06 11.669-2.475 23.691-2.829 33.945-2.121-6.011 0.354-16.972-0.707-20.508 1.061 3.536-0.354 8.486-0.707 11.668-0.354-4.243 0-12.022 0.354-15.558 0.707-0.354-0.354 5.657-1.061 1.768-1.06-1.768 0.354-4.597 0.354-5.657 1.414-30.409 2.829-60.111 18.74-80.973 37.481-4.243 3.536-9.193 7.425-12.375 11.314-7.779 8.84-12.729 17.68-18.387 25.459 3.536-7.425 11.315-18.74 20.508-28.287 9.193-9.547 19.094-17.68 24.398-21.923 0 1.414 8.486-5.304 11.669-7.425-2.122 1.768 1.414-0.707 2.121-0.354 11.315-6.718 20.508-9.193 30.763-13.083-2.475 0.707-4.597 1.414-4.951 1.061 2.475-0.707 3.889-1.414 3.536-1.768-9.901 2.829-25.459 9.547-37.834 16.972 22.276-15.204 50.564-24.398 78.497-24.751 27.934-0.707 55.16 6.365 76.729 17.68 14.497 6.365 28.287 18.033 39.249 29.348 3.182 2.829 0.707-0.707 5.304 4.243-1.414-0.707-2.475-1.414-0.707 0.707 2.829 3.182-0.707-2.475 3.889 3.182-0.354 0-1.768-1.768-1.768-1.061 12.376 10.961 21.923 30.762 27.58 43.846-1.414-5.304-4.95-12.729-7.779-18.033 8.486 15.558 11.315 24.751 14.851 38.541 1.414 1.061-0.707-4.95 0.707-2.121 0.354 2.122 0.707 8.84 2.122 9.9-1.061-6.718-2.829-14.851-4.243-16.265 1.061 0.707-1.768-8.133-3.536-10.254-0.707-5.657-5.657-15.558-9.901-22.984-15.204-29.702-42.431-54.099-72.839-67.536 0-0.707-1.768-1.414-2.476-2.121-30.055-12.729-66.122-16.265-100.773-8.133-35.006 8.486-67.889 28.641-91.227 57.636 1.061-3.536 9.901-10.254 10.255-13.083-10.254 10.961-21.215 25.459-28.641 41.016-7.779 15.558-12.022 31.47-13.79 43.138" fill="#ffffff" fill-rule="nonzero" stroke="none" stroke-width="1" stroke-linecap="butt" stroke-linejoin="miter" stroke-miterlimit="10" stroke-dasharray="" stroke-dashoffset="0" font-family="none" font-weight="none" font-size="none" text-anchor="none" style="mix-blend-mode: normal" data-fill-palette-color="tertiary"></path></g><g transform="matrix(1,0,0,1,48,158.33843302310262)"><svg viewBox="0 0 224 43.32313395379473" height="43.32313395379473" width="224"><g><svg viewBox="0 0 283.98503570985645 54.92465063808612" height="43.32313395379473" width="224"><g transform="matrix(1,0,0,1,0,7.590888764019141)"><svg viewBox="0 0 224 39.74287311004784" height="39.74287311004784" width="224"><g id="textblocktransform"><svg viewBox="0 0 224 39.74287311004784" height="39.74287311004784" width="224" id="textblock"><g><svg viewBox="0 0 224 21.43540669856459" height="21.43540669856459" width="224"><g transform="matrix(1,0,0,1,0,0)"><svg width="224" viewBox="4.320000171661377 -33.08000183105469 352.04998779296875 33.69000244140625" height="21.43540669856459"><path d="M10.79-20.58L10.79 0.15Q9.62 0 6.27 0L6.27 0 4.32 0 4.32-32.57Q5.88-32.47 7.76-32.47 9.64-32.47 10.42-32.67L10.42-32.67 18.63-18.73 26.51-32.67Q27.29-32.47 29.49-32.47 31.69-32.47 33.25-32.57L33.25-32.57 33.25 0 31.3 0Q27.95 0 26.78 0.15L26.78 0.15 26.78-21.73 18.8-7.45 10.79-20.58ZM46.43-7.03L44.14 0.2Q42.04 0 39.23 0L39.23 0 37.3 0 47.92-29.76Q48.63-31.76 48.63-32.09 48.63-32.42 48.61-32.5L48.61-32.5 48.63-32.54Q50.22-32.47 52-32.47L52-32.47Q53.46-32.47 55.52-32.52L55.52-32.52 55.54-32.47Q55.49-32.37 55.49-32.2L55.49-32.2Q55.49-31.74 56.22-29.74L56.22-29.74 67.06 0.07Q66.57 0.05 65.92 0.05L65.92 0.05Q65.92 0.05 64.65 0L64.65 0Q64.04 0 63.55 0L63.55 0 59.76 0 57.47-7.03 46.43-7.03ZM48.29-12.89L55.56-12.89 51.88-24.24 48.29-12.89ZM82.71-27L82.71 0.15Q81.54 0 76.68 0L76.68 0 75.9 0 75.9-27 71.06-27Q68.92-27 68.53-26.78 68.13-26.56 67.91-26.39L67.91-26.39 67.84-26.42 67.84-32.67 67.91-32.74Q68.72-32.47 72.26-32.47L72.26-32.47 87.57-32.47Q89.72-32.47 90.11-32.69 90.5-32.91 90.72-33.08L90.72-33.08 90.79-33.06 90.79-26.81 90.72-26.73Q89.91-27 86.37-27L86.37-27 82.71-27ZM107.76-27L107.76 0.15Q106.58 0 101.73 0L101.73 0 100.94 0 100.94-27 96.11-27Q93.96-27 93.57-26.78 93.18-26.56 92.96-26.39L92.96-26.39 92.89-26.42 92.89-32.67 92.96-32.74Q93.77-32.47 97.31-32.47L97.31-32.47 112.61-32.47Q114.76-32.47 115.15-32.69 115.54-32.91 115.76-33.08L115.76-33.08 115.84-33.06 115.84-26.81 115.76-26.73Q114.96-27 111.42-27L111.42-27 107.76-27ZM127.68-13.79L127.68 0.15Q125.33 0 122.11 0L122.11 0 121.33 0 121.33-32.59Q122.84-32.47 123.48-32.47L123.48-32.47 124.48-32.47Q126.41-32.47 127.68-32.67L127.68-32.67 127.68-19.65 139.15-19.65 139.15-32.59Q141.18-32.47 143.09-32.47 145.01-32.47 145.5-32.67L145.5-32.67 145.5 0.15Q144.33 0 140.86 0L140.86 0 139.15 0 139.15-13.79 127.68-13.79ZM160.75-5.86L170.72-5.86Q172.23-5.86 172.81-6.15L172.81-6.15 172.91-6.13 172.67 0 154.38 0 154.38-32.64Q155.04-32.59 155.85-32.57L155.85-32.57 157.56-32.52Q159.26-32.47 161.27-32.47L161.27-32.47Q166.86-32.47 172.33-32.67L172.33-32.67Q172.06-30.52 172.06-26.93L172.06-26.93Q172.06-26.54 172.11-26.34L172.11-26.34 172.06-26.27Q170.79-26.64 168.44-26.64L168.44-26.64 160.75-26.64 160.75-20.41 166.54-20.41Q169.23-20.41 169.76-20.56L169.76-20.56 169.84-14.53Q168.66-14.65 166.81-14.65L166.81-14.65 160.75-14.65 160.75-5.86ZM191.1 0.02L191.05 0.1Q190.32 0 188.56 0L188.56 0 185.73 0Q184.9 0 184.36 0.05L184.36 0.05 184.34 0Q184.43-0.17 184.43-0.39 184.43-0.61 184.4-0.85 184.36-1.1 184.2-1.73 184.04-2.37 183.73-3.56L183.73-3.56 175.42-32.57Q176.99-32.47 179.21-32.47 181.43-32.47 182.09-32.67L182.09-32.67 187.85-10.57 193.47-32.57Q193.83-32.54 194.13-32.52L194.13-32.52 194.66-32.52Q195.47-32.47 196.69-32.47 197.91-32.47 199.2-32.67L199.2-32.67 204.92-10.57 209.82-32.57Q211.29-32.47 213.66-32.47 216.03-32.47 216.54-32.67L216.54-32.67 209.51-6.91Q208.16-2.47 208.09-1.64 208.02-0.81 208.02-0.49 208.02-0.17 208.11 0.02L208.11 0.02 208.07 0.1Q207.28 0 205.6 0L205.6 0Q204.14 0 202.94 0 201.74 0 201.21 0.05L201.21 0.05 201.18 0Q201.28-0.17 201.28-0.39 201.28-0.61 201.25-0.83 201.23-1.05 201.12-1.67 201.01-2.29 200.77-3.52L200.77-3.52 200.11-6.84 196.1-22.05 192.29-6.91Q191.12-2.25 191.07-1.54L191.07-1.54Q190.98-0.2 191.1 0.02L191.1 0.02ZM244.83 0L242.51 0Q238.92 0 237.75 0.15L237.75 0.15 237.75-32.62Q238.33-32.47 240.18-32.47 242.02-32.47 244.46-32.57L244.46-32.57 244.46-5.86 249.52-5.86Q251.71-5.86 253.03-6.01L253.03-6.01Q252.86-0.29 252.86-0.07L252.86-0.07 252.86 0.17Q250.47 0 244.83 0L244.83 0ZM261.28-3.86Q259.06-5.98 257.78-8.96 256.5-11.94 256.5-15.49 256.5-19.04 257.69-22.22 258.89-25.39 261.11-27.81 263.33-30.22 266.48-31.65 269.63-33.08 273.54-33.08L273.54-33.08Q280.28-33.08 284.89-28.83L284.89-28.83Q289.82-24.29 289.82-16.58L289.82-16.58Q289.82-9.11 284.74-4.15L284.74-4.15Q281.62-1.1 277.3 0.05L277.3 0.05Q275.17 0.61 272.33 0.61 269.48 0.61 266.49-0.56 263.5-1.73 261.28-3.86ZM263.28-15.82L263.28-15.82Q263.28-13.55 264.04-11.65 264.8-9.74 266.14-8.37L266.14-8.37Q269-5.49 273.49-5.49L273.49-5.49Q277.76-5.49 280.35-8.25L280.35-8.25Q282.99-11.11 282.99-16.04L282.99-16.04Q282.99-20.68 280.47-23.78L280.47-23.78Q277.76-27.1 273.05-27.1L273.05-27.1Q268.48-27.1 265.8-23.73L265.8-23.73Q263.28-20.58 263.28-15.82ZM307.76 0.02L307.71 0.1Q306.98 0 305.22 0L305.22 0 302.39 0Q301.56 0 301.02 0.05L301.02 0.05 301 0Q301.1-0.17 301.1-0.39 301.1-0.61 301.06-0.85 301.02-1.1 300.87-1.73 300.71-2.37 300.39-3.56L300.39-3.56 292.09-32.57Q293.65-32.47 295.87-32.47 298.1-32.47 298.75-32.67L298.75-32.67 304.52-10.57 310.13-32.57Q310.5-32.54 310.79-32.52L310.79-32.52 311.33-32.52Q312.13-32.47 313.35-32.47 314.57-32.47 315.87-32.67L315.87-32.67 321.58-10.57 326.49-32.57Q327.95-32.47 330.32-32.47 332.69-32.47 333.2-32.67L333.2-32.67 326.17-6.91Q324.83-2.47 324.76-1.64 324.68-0.81 324.68-0.49 324.68-0.17 324.78 0.02L324.78 0.02 324.73 0.1Q323.95 0 322.27 0L322.27 0Q320.8 0 319.6 0 318.41 0 317.87 0.05L317.87 0.05 317.85 0Q317.94-0.17 317.94-0.39 317.94-0.61 317.92-0.83 317.89-1.05 317.79-1.67 317.68-2.29 317.43-3.52L317.43-3.52 316.77-6.84 312.77-22.05 308.96-6.91Q307.79-2.25 307.74-1.54L307.74-1.54Q307.64-0.2 307.76 0.02L307.76 0.02ZM344.21-5.86L354.17-5.86Q355.69-5.86 356.27-6.15L356.27-6.15 356.37-6.13 356.12 0 337.84 0 337.84-32.64Q338.5-32.59 339.3-32.57L339.3-32.57 341.01-32.52Q342.72-32.47 344.72-32.47L344.72-32.47Q350.31-32.47 355.78-32.67L355.78-32.67Q355.51-30.52 355.51-26.93L355.51-26.93Q355.51-26.54 355.56-26.34L355.56-26.34 355.51-26.27Q354.24-26.64 351.9-26.64L351.9-26.64 344.21-26.64 344.21-20.41 350-20.41Q352.68-20.41 353.22-20.56L353.22-20.56 353.29-14.53Q352.12-14.65 350.27-14.65L350.27-14.65 344.21-14.65 344.21-5.86Z" opacity="1" transform="matrix(1,0,0,1,0,0)" fill="#ffffff" class="undefined-text-0" data-fill-palette-color="primary" id="text-0"></path></svg></g></svg></g><g transform="matrix(1,0,0,1,119.10283981400364,26.495791770334925)"><svg viewBox="0 0 104.89716018599636 13.247081339712917" height="13.247081339712917" width="104.89716018599636"><g transform="matrix(1,0,0,1,0,0)"><svg width="104.89716018599636" viewBox="3.200000047683716 -38.0099983215332 384.2799987792969 48.529998779296875" height="13.247081339712917"><path d="M26.64-11.08L29.66-11.08Q29.05-5.47 25.65-2.49 22.24 0.49 16.58 0.49L16.58 0.49Q12.62 0.49 9.58-1.49 6.54-3.47 4.88-7.09 3.22-10.72 3.2-15.38L3.2-15.38 3.2-20Q3.2-24.73 4.86-28.39 6.52-32.06 9.63-34.05 12.74-36.04 16.8-36.04L16.8-36.04Q22.51-36.04 25.82-32.95 29.13-29.86 29.66-24.41L29.66-24.41 26.64-24.41Q25.51-33.47 16.8-33.47L16.8-33.47Q11.96-33.47 9.09-29.86 6.23-26.25 6.23-19.87L6.23-19.87 6.23-15.53Q6.23-9.38 9.02-5.71 11.82-2.05 16.58-2.05L16.58-2.05Q21.29-2.05 23.68-4.31 26.07-6.57 26.64-11.08L26.64-11.08ZM34.67-13.01L34.67-13.6Q34.67-17.41 36.14-20.46 37.62-23.51 40.32-25.21 43.02-26.9 46.43-26.9L46.43-26.9Q51.71-26.9 54.98-23.21 58.25-19.51 58.25-13.4L58.25-13.4 58.25-12.79Q58.25-8.96 56.77-5.9 55.3-2.83 52.61-1.17 49.92 0.49 46.48 0.49L46.48 0.49Q41.23 0.49 37.95-3.21 34.67-6.91 34.67-13.01L34.67-13.01ZM37.6-13.33L37.6-12.79Q37.6-8.06 40.05-5.02 42.5-1.98 46.48-1.98L46.48-1.98Q50.44-1.98 52.89-5.02 55.34-8.06 55.34-13.04L55.34-13.04 55.34-13.6Q55.34-16.63 54.22-19.14 53.1-21.66 51.07-23.03 49.05-24.41 46.43-24.41L46.43-24.41Q42.53-24.41 40.06-21.35 37.6-18.29 37.6-13.33L37.6-13.33ZM63.11-13.11L63.11-13.45Q63.11-19.6 65.85-23.25 68.6-26.9 73.31-26.9L73.31-26.9Q78.66-26.9 81.46-22.68L81.46-22.68 81.46-37.5 84.37-37.5 84.37 0 81.64 0 81.51-3.52Q78.71 0.49 73.26 0.49L73.26 0.49Q68.7 0.49 65.9-3.19 63.11-6.86 63.11-13.11L63.11-13.11ZM66.06-12.94L66.06-12.94Q66.06-7.89 68.09-4.97 70.11-2.05 73.8-2.05L73.8-2.05Q79.19-2.05 81.46-6.81L81.46-6.81 81.46-19.21Q79.19-24.37 73.85-24.37L73.85-24.37Q70.16-24.37 68.11-21.47 66.06-18.58 66.06-12.94ZM95.33-26.42L95.33 0 92.4 0 92.4-26.42 95.33-26.42ZM91.89-34.06L91.89-34.06Q91.89-34.89 92.42-35.46 92.96-36.04 93.89-36.04 94.82-36.04 95.37-35.46 95.92-34.89 95.92-34.06 95.92-33.23 95.37-32.67 94.82-32.1 93.89-32.1 92.96-32.1 92.42-32.67 91.89-33.23 91.89-34.06ZM103.26-26.42L106.04-26.42 106.14-21.9Q107.63-24.34 109.85-25.62 112.07-26.9 114.76-26.9L114.76-26.9Q119.01-26.9 121.08-24.51 123.16-22.12 123.18-17.33L123.18-17.33 123.18 0 120.28 0 120.28-17.36Q120.25-20.9 118.78-22.63 117.3-24.37 114.05-24.37L114.05-24.37Q111.34-24.37 109.26-22.67 107.17-20.97 106.17-18.09L106.17-18.09 106.17 0 103.26 0 103.26-26.42ZM129.55-13.06L129.55-13.45Q129.55-19.65 132.3-23.28 135.05-26.9 139.76-26.9L139.76-26.9Q145.15-26.9 147.96-22.61L147.96-22.61 148.11-26.42 150.84-26.42 150.84-0.54Q150.84 4.57 147.99 7.54 145.13 10.52 140.25 10.52L140.25 10.52Q137.49 10.52 134.99 9.29 132.48 8.06 131.04 6.01L131.04 6.01 132.68 4.25Q135.78 8.06 140.05 8.06L140.05 8.06Q143.71 8.06 145.76 5.9 147.81 3.74 147.89-0.1L147.89-0.1 147.89-3.42Q145.08 0.49 139.71 0.49L139.71 0.49Q135.12 0.49 132.34-3.17 129.55-6.84 129.55-13.06L129.55-13.06ZM132.51-12.94L132.51-12.94Q132.51-7.89 134.53-4.97 136.56-2.05 140.25-2.05L140.25-2.05Q145.64-2.05 147.89-6.88L147.89-6.88 147.89-19.17Q146.86-21.7 144.93-23.03 143.01-24.37 140.3-24.37L140.3-24.37Q136.61-24.37 134.56-21.47 132.51-18.58 132.51-12.94ZM175.64 0L172.71 0 172.71-24.02 168.34-24.02 168.34-26.42 172.71-26.42 172.71-29.61Q172.71-33.67 174.77-35.84 176.84-38.01 180.52-38.01L180.52-38.01Q182.18-38.01 183.63-37.6L183.63-37.6 183.41-35.16Q182.18-35.45 180.74-35.45L180.74-35.45Q178.33-35.45 176.98-33.95 175.64-32.45 175.64-29.69L175.64-29.69 175.64-26.42 181.94-26.42 181.94-24.02 175.64-24.02 175.64 0ZM185.55-13.01L185.55-13.6Q185.55-17.41 187.03-20.46 188.51-23.51 191.2-25.21 193.9-26.9 197.32-26.9L197.32-26.9Q202.59-26.9 205.86-23.21 209.14-19.51 209.14-13.4L209.14-13.4 209.14-12.79Q209.14-8.96 207.66-5.9 206.18-2.83 203.5-1.17 200.81 0.49 197.37 0.49L197.37 0.49Q192.12 0.49 188.83-3.21 185.55-6.91 185.55-13.01L185.55-13.01ZM188.48-13.33L188.48-12.79Q188.48-8.06 190.93-5.02 193.39-1.98 197.37-1.98L197.37-1.98Q201.32-1.98 203.78-5.02 206.23-8.06 206.23-13.04L206.23-13.04 206.23-13.6Q206.23-16.63 205.11-19.14 203.98-21.66 201.96-23.03 199.93-24.41 197.32-24.41L197.32-24.41Q193.41-24.41 190.95-21.35 188.48-18.29 188.48-13.33L188.48-13.33ZM227.44-26.59L227.37-23.93Q226.44-24.1 225.39-24.1L225.39-24.1Q222.66-24.1 220.77-22.57 218.87-21.04 218.07-18.14L218.07-18.14 218.07 0 215.16 0 215.16-26.42 218.02-26.42 218.07-22.22Q220.39-26.9 225.51-26.9L225.51-26.9Q226.74-26.9 227.44-26.59L227.44-26.59ZM256.86-14.48L247.82-14.48 247.82 0 244.82 0 244.82-35.55 256.93-35.55Q262.47-35.55 265.68-32.71 268.89-29.88 268.89-24.93L268.89-24.93Q268.89-19.92 265.81-17.2 262.72-14.48 256.86-14.48L256.86-14.48ZM247.82-32.98L247.82-17.02 256.93-17.02Q261.3-17.02 263.6-19.09 265.89-21.17 265.89-24.88L265.89-24.88Q265.89-28.56 263.61-30.75 261.33-32.93 257.13-32.98L257.13-32.98 247.82-32.98ZM284.83 0.49L284.83 0.49Q281.46 0.49 278.74-1.17 276.02-2.83 274.51-5.8 272.99-8.76 272.99-12.45L272.99-12.45 272.99-13.5Q272.99-17.31 274.47-20.36 275.95-23.41 278.58-25.16 281.22-26.9 284.3-26.9L284.3-26.9Q289.11-26.9 291.93-23.62 294.75-20.34 294.75-14.65L294.75-14.65 294.75-13.01 275.9-13.01 275.9-12.45Q275.9-7.96 278.47-4.97 281.05-1.98 284.96-1.98L284.96-1.98Q287.3-1.98 289.09-2.83 290.89-3.69 292.35-5.57L292.35-5.57 294.18-4.17Q290.96 0.49 284.83 0.49ZM284.3-24.41L284.3-24.41Q281-24.41 278.74-22 276.48-19.58 276-15.5L276-15.5 291.84-15.5 291.84-15.82Q291.72-19.63 289.67-22.02 287.62-24.41 284.3-24.41ZM298.82-13.01L298.82-13.6Q298.82-17.41 300.3-20.46 301.77-23.51 304.47-25.21 307.17-26.9 310.59-26.9L310.59-26.9Q315.86-26.9 319.13-23.21 322.4-19.51 322.4-13.4L322.4-13.4 322.4-12.79Q322.4-8.96 320.93-5.9 319.45-2.83 316.76-1.17 314.08 0.49 310.64 0.49L310.64 0.49Q305.39 0.49 302.1-3.21 298.82-6.91 298.82-13.01L298.82-13.01ZM301.75-13.33L301.75-12.79Q301.75-8.06 304.2-5.02 306.66-1.98 310.64-1.98L310.64-1.98Q314.59-1.98 317.05-5.02 319.5-8.06 319.5-13.04L319.5-13.04 319.5-13.6Q319.5-16.63 318.38-19.14 317.25-21.66 315.23-23.03 313.2-24.41 310.59-24.41L310.59-24.41Q306.68-24.41 304.22-21.35 301.75-18.29 301.75-13.33L301.75-13.33ZM349.67-13.35L349.67-12.94Q349.67-6.76 346.94-3.14 344.2 0.49 339.61 0.49L339.61 0.49Q334.19 0.49 331.31-3.32L331.31-3.32 331.31 10.16 328.41 10.16 328.41-26.42 331.12-26.42 331.26-22.68Q334.12-26.9 339.54-26.9L339.54-26.9Q344.28-26.9 346.97-23.32 349.67-19.73 349.67-13.35L349.67-13.35ZM346.74-13.45L346.74-13.45Q346.74-18.51 344.67-21.44 342.59-24.37 338.88-24.37L338.88-24.37Q336.2-24.37 334.27-23.07 332.34-21.78 331.31-19.31L331.31-19.31 331.31-6.64Q332.36-4.37 334.32-3.17 336.27-1.98 338.93-1.98L338.93-1.98Q342.62-1.98 344.68-4.92 346.74-7.86 346.74-13.45ZM359.41-37.5L359.41 0 356.48 0 356.48-37.5 359.41-37.5ZM377.57 0.49L377.57 0.49Q374.2 0.49 371.48-1.17 368.76-2.83 367.25-5.8 365.73-8.76 365.73-12.45L365.73-12.45 365.73-13.5Q365.73-17.31 367.21-20.36 368.69-23.41 371.32-25.16 373.96-26.9 377.04-26.9L377.04-26.9Q381.84-26.9 384.66-23.62 387.48-20.34 387.48-14.65L387.48-14.65 387.48-13.01 368.64-13.01 368.64-12.45Q368.64-7.96 371.21-4.97 373.79-1.98 377.69-1.98L377.69-1.98Q380.04-1.98 381.83-2.83 383.63-3.69 385.09-5.57L385.09-5.57 386.92-4.17Q383.7 0.49 377.57 0.49ZM377.04-24.41L377.04-24.41Q373.74-24.41 371.48-22 369.22-19.58 368.73-15.5L368.73-15.5 384.58-15.5 384.58-15.82Q384.46-19.63 382.41-22.02 380.36-24.41 377.04-24.41Z" opacity="1" transform="matrix(1,0,0,1,0,0)" fill="#ffffff" class="undefined-text-1" data-fill-palette-color="secondary" id="text-1"></path></svg></g></svg></g></svg></g></svg></g><g transform="matrix(1,0,0,1,229.06038507177033,0)"><svg viewBox="0 0 54.92465063808612 54.92465063808612" height="54.92465063808612" width="54.92465063808612"><g><rect width="15.012737841076872" height="54.92465063808612" fill="#ffffff" stroke="transparent" data-fill-palette-color="accent" x="0" fill-opacity="1"></rect><rect width="15.012737841076872" height="54.92465063808612" fill="#ffffff" stroke="transparent" data-fill-palette-color="accent" x="18.30821687936204" fill-opacity="0.75"></rect><rect width="15.012737841076872" height="54.92465063808612" fill="#ffffff" stroke="transparent" data-fill-palette-color="accent" x="36.61643375872408" fill-opacity="0.5"></rect></g></svg></g></svg></g></svg></g></svg></g><defs></defs></svg><rect width="320" height="360" fill="none" stroke="none" visibility="hidden"></rect></g></svg></g></svg>